<svg width="54" height="54" viewBox="0 0 54 54" fill="none" xmlns="http://www.w3.org/2000/svg">
<circle cx="27" cy="27" r="27" fill="white"/>
<path d="M54 27.0992C54 12.1328 41.9116 0 27 0C12.0884 0 0 12.1328 0 27.0992C0 39.8076 8.71776 50.4717 20.4779 53.4006V35.3807H14.9105V27.0992H20.4779V23.5308C20.4779 14.3073 24.637 10.0321 33.6593 10.0321C35.37 10.0321 38.3216 10.3692 39.5291 10.7053V18.2117C38.8919 18.1445 37.7849 18.1109 36.41 18.1109C31.9831 18.1109 30.2724 19.7943 30.2724 24.1703V27.0992H39.0917L37.5764 35.3807H30.2724V54C43.6396 52.3795 54 40.9545 54 27.0992Z" fill="#0966FF"/>
</svg>
