<svg width="54" height="54" viewBox="0 0 54 54" fill="none" xmlns="http://www.w3.org/2000/svg">
<path d="M27.5508 22.0908V32.5472H42.3784C41.7273 35.9099 39.7734 38.7573 36.843 40.6718L45.7846 47.4709C50.9943 42.7584 53.9999 35.8365 53.9999 27.6138C53.9999 25.6993 53.8246 23.8582 53.4989 22.0911L27.5508 22.0908Z" fill="#4285F4"/>
<path d="M12.1104 32.139L10.0937 33.6519L2.95532 39.1009C7.48875 47.9126 16.7804 54 27.5504 54C34.989 54 41.2256 51.5945 45.7841 47.471L36.8425 40.6718C34.388 42.2918 31.2571 43.2737 27.5504 43.2737C20.387 43.2737 14.3009 38.5365 12.1217 32.1546L12.1104 32.139Z" fill="#34A853"/>
<path d="M2.95529 14.899C1.07689 18.5316 0 22.6308 0 26.9998C0 31.3688 1.07689 35.4679 2.95529 39.1005C2.95529 39.1249 12.1225 32.1296 12.1225 32.1296C11.5715 30.5096 11.2458 28.7915 11.2458 26.9995C11.2458 25.2074 11.5715 23.4894 12.1225 21.8694L2.95529 14.899Z" fill="#FBBC05"/>
<path d="M27.5509 10.7509C31.6085 10.7509 35.2152 12.1254 38.0955 14.7763L45.9852 7.04463C41.2012 2.67562 34.9899 0 27.5509 0C16.7809 0 7.48875 6.06271 2.95532 14.8991L12.1223 21.87C14.3012 15.4881 20.3876 10.7509 27.5509 10.7509Z" fill="#EA4335"/>
</svg>
